<svg width="299" height="220" viewBox="0 0 299 220" fill="none" xmlns="http://www.w3.org/2000/svg">
  <path d="M0 16C0 7.16344 7.16344 0 16 0H283C291.837 0 299 7.16344 299 16V204C299 212.837 291.837 220 283 220H16C7.16344 220 0 212.837 0 204V16Z" fill="#1A1B1E"/>
  <path fill-rule="evenodd" clip-rule="evenodd" d="M283 1H16C7.71573 1 1 7.71573 1 16V204C1 212.284 7.71572 219 16 219H283C291.284 219 298 212.284 298 204V16C298 7.71573 291.284 1 283 1ZM16 0C7.16344 0 0 7.16344 0 16V204C0 212.837 7.16344 220 16 220H283C291.837 220 299 212.837 299 204V16C299 7.16344 291.837 0 283 0H16Z" fill="url(#paint0_linear)"/>
  <path d="M16 51C16 46.5817 19.5817 43 24 43H146C150.418 43 154 46.5817 154 51V169C154 173.418 150.418 177 146 177H24C19.5817 177 16 173.418 16 169V51Z" fill="#FE6459"/>
  <path opacity="0.5" d="M24 53C24 51.8954 24.8954 51 26 51H144C145.105 51 146 51.8954 146 53C146 54.1046 145.105 55 144 55H26C24.8954 55 24 54.1046 24 53Z" fill="white"/>
  <path opacity="0.25" d="M24 61C24 59.8954 24.8954 59 26 59H91C92.1046 59 93 59.8954 93 61C93 62.1046 92.1046 63 91 63H26C24.8954 63 24 62.1046 24 61Z" fill="white"/>
  <path d="M24 75C24 72.7909 25.7909 71 28 71H79C81.2091 71 83 72.7909 83 75V114C83 116.209 81.2091 118 79 118H28C25.7909 118 24 116.209 24 114V75Z" fill="#EF493E"/>
  <path d="M28 106C28 104.895 28.8954 104 30 104H77C78.1046 104 79 104.895 79 106C79 107.105 78.1046 108 77 108H30C28.8954 108 28 107.105 28 106Z" fill="white"/>
  <path opacity="0.5" d="M28 112C28 110.895 28.8954 110 30 110H56C57.1046 110 58 110.895 58 112C58 113.105 57.1046 114 56 114H30C28.8954 114 28 113.105 28 112Z" fill="white"/>
  <path d="M24 126C24 123.791 25.7909 122 28 122H79C81.2091 122 83 123.791 83 126V165C83 167.209 81.2091 169 79 169H28C25.7909 169 24 167.209 24 165V126Z" fill="#EF493E"/>
  <path d="M28 157C28 155.895 28.8954 155 30 155H77C78.1046 155 79 155.895 79 157C79 158.105 78.1046 159 77 159H30C28.8954 159 28 158.105 28 157Z" fill="white"/>
  <path opacity="0.5" d="M28 163C28 161.895 28.8954 161 30 161H56C57.1046 161 58 161.895 58 163C58 164.105 57.1046 165 56 165H30C28.8954 165 28 164.105 28 163Z" fill="white"/>
  <path d="M87 75C87 72.7909 88.7909 71 91 71H142C144.209 71 146 72.7909 146 75V114C146 116.209 144.209 118 142 118H91C88.7909 118 87 116.209 87 114V75Z" fill="#EF493E"/>
  <path d="M91 106C91 104.895 91.8954 104 93 104H140C141.105 104 142 104.895 142 106C142 107.105 141.105 108 140 108H93C91.8954 108 91 107.105 91 106Z" fill="white"/>
  <path opacity="0.5" d="M91 112C91 110.895 91.8954 110 93 110H119C120.105 110 121 110.895 121 112C121 113.105 120.105 114 119 114H93C91.8954 114 91 113.105 91 112Z" fill="white"/>
  <path d="M87 126C87 123.791 88.7909 122 91 122H142C144.209 122 146 123.791 146 126V165C146 167.209 144.209 169 142 169H91C88.7909 169 87 167.209 87 165V126Z" fill="#EF493E"/>
  <path d="M91 157C91 155.895 91.8954 155 93 155H140C141.105 155 142 155.895 142 157C142 158.105 141.105 159 140 159H93C91.8954 159 91 158.105 91 157Z" fill="white"/>
  <path opacity="0.5" d="M91 163C91 161.895 91.8954 161 93 161H119C120.105 161 121 161.895 121 163C121 164.105 120.105 165 119 165H93C91.8954 165 91 164.105 91 163Z" fill="white"/>
  <path d="M168 63C168 64.6569 166.657 66 165 66C163.343 66 162 64.6569 162 63C162 61.3431 163.343 60 165 60C166.657 60 168 61.3431 168 63Z" fill="white"/>
  <path d="M172 63C172 61.3431 173.343 60 175 60H255C256.657 60 258 61.3431 258 63C258 64.6569 256.657 66 255 66H175C173.343 66 172 64.6569 172 63Z" fill="#F0B3B3"/>
  <path d="M168 77C168 78.6569 166.657 80 165 80C163.343 80 162 78.6569 162 77C162 75.3431 163.343 74 165 74C166.657 74 168 75.3431 168 77Z" fill="white"/>
  <path d="M172 77C172 75.3431 173.343 74 175 74H278C279.657 74 281 75.3431 281 77C281 78.6569 279.657 80 278 80H175C173.343 80 172 78.6569 172 77Z" fill="#F0B3B3"/>
  <path d="M168 91C168 92.6569 166.657 94 165 94C163.343 94 162 92.6569 162 91C162 89.3431 163.343 88 165 88C166.657 88 168 89.3431 168 91Z" fill="white"/>
  <path d="M172 91C172 89.3431 173.343 88 175 88H260C261.657 88 263 89.3431 263 91C263 92.6569 261.657 94 260 94H175C173.343 94 172 92.6569 172 91Z" fill="#F0B3B3"/>
  <path d="M168 105C168 106.657 166.657 108 165 108C163.343 108 162 106.657 162 105C162 103.343 163.343 102 165 102C166.657 102 168 103.343 168 105Z" fill="white"/>
  <path d="M172 105C172 103.343 173.343 102 175 102H239C240.657 102 242 103.343 242 105C242 106.657 240.657 108 239 108H175C173.343 108 172 106.657 172 105Z" fill="#F0B3B3"/>
  <path d="M168 119C168 120.657 166.657 122 165 122C163.343 122 162 120.657 162 119C162 117.343 163.343 116 165 116C166.657 116 168 117.343 168 119Z" fill="white"/>
  <path d="M172 119C172 117.343 173.343 116 175 116H278C279.657 116 281 117.343 281 119C281 120.657 279.657 122 278 122H175C173.343 122 172 120.657 172 119Z" fill="#F0B3B3"/>
  <path d="M168 133C168 134.657 166.657 136 165 136C163.343 136 162 134.657 162 133C162 131.343 163.343 130 165 130C166.657 130 168 131.343 168 133Z" fill="white"/>
  <path d="M172 133C172 131.343 173.343 130 175 130H262C263.657 130 265 131.343 265 133C265 134.657 263.657 136 262 136H175C173.343 136 172 134.657 172 133Z" fill="#F0B3B3"/>
  <path d="M168 147C168 148.657 166.657 150 165 150C163.343 150 162 148.657 162 147C162 145.343 163.343 144 165 144C166.657 144 168 145.343 168 147Z" fill="white"/>
  <path d="M172 147C172 145.343 173.343 144 175 144H278C279.657 144 281 145.343 281 147C281 148.657 279.657 150 278 150H175C173.343 150 172 148.657 172 147Z" fill="#F0B3B3"/>
  <path d="M168 161C168 162.657 166.657 164 165 164C163.343 164 162 162.657 162 161C162 159.343 163.343 158 165 158C166.657 158 168 159.343 168 161Z" fill="white"/>
  <path d="M172 161C172 159.343 173.343 158 175 158H227C228.657 158 230 159.343 230 161C230 162.657 228.657 164 227 164H175C173.343 164 172 162.657 172 161Z" fill="#F0B3B3"/>
  <defs>
  <linearGradient id="paint0_linear" x1="149.5" y1="0" x2="149.5" y2="220" gradientUnits="userSpaceOnUse">
  <stop stop-color="#FE6459"/>
  <stop offset="1" stop-color="#CB3025"/>
  </linearGradient>
  </defs>
  </svg>
  