<svg width="299" height="220" viewBox="0 0 299 220" fill="none" xmlns="http://www.w3.org/2000/svg">
  <rect width="299" height="220" rx="16" fill="#111215"/>
  <rect x="0.5" y="0.5" width="298" height="219" rx="15.5" fill="#1A1B1E" stroke="url(#paint0_linear)"/>
  <path fill-rule="evenodd" clip-rule="evenodd" d="M65 66C65 64.8954 65.8954 64 67 64H95C96.1046 64 97 64.8954 97 66C97 67.1046 96.1046 68 95 68H67C65.8954 68 65 67.1046 65 66Z" fill="white"/>
  <path fill-rule="evenodd" clip-rule="evenodd" d="M65 80C65 77.7909 66.7909 76 69 76H117C119.209 76 121 77.7909 121 80C121 82.2091 119.209 84 117 84H69C66.7909 84 65 82.2091 65 80Z" fill="#FE6459"/>
  <path fill-rule="evenodd" clip-rule="evenodd" d="M65 110C65 108.895 65.8954 108 67 108H119C120.105 108 121 108.895 121 110C121 111.105 120.105 112 119 112H67C65.8954 112 65 111.105 65 110Z" fill="white"/>
  <path fill-rule="evenodd" clip-rule="evenodd" d="M65 102C65 100.895 65.8954 100 67 100H119C120.105 100 121 100.895 121 102C121 103.105 120.105 104 119 104H67C65.8954 104 65 103.105 65 102Z" fill="white"/>
  <path fill-rule="evenodd" clip-rule="evenodd" d="M65 118C65 116.895 65.8954 116 67 116H87C88.1046 116 89 116.895 89 118C89 119.105 88.1046 120 87 120H67C65.8954 120 65 119.105 65 118Z" fill="white"/>
  <path fill-rule="evenodd" clip-rule="evenodd" d="M153 66C153 64.8954 153.895 64 155 64H183C184.105 64 185 64.8954 185 66C185 67.1046 184.105 68 183 68H155C153.895 68 153 67.1046 153 66Z" fill="#FE6459"/>
  <path fill-rule="evenodd" clip-rule="evenodd" d="M153 80C153 77.7909 154.791 76 157 76H229C231.209 76 233 77.7909 233 80V88C233 90.2091 231.209 92 229 92H157C154.791 92 153 90.2091 153 88V80Z" fill="#CD7979"/>
  <path fill-rule="evenodd" clip-rule="evenodd" d="M153 102C153 100.895 153.895 100 155 100H191C192.105 100 193 100.895 193 102C193 103.105 192.105 104 191 104H155C153.895 104 153 103.105 153 102Z" fill="#FE6459"/>
  <path fill-rule="evenodd" clip-rule="evenodd" d="M153 116C153 113.791 154.791 112 157 112H229C231.209 112 233 113.791 233 116V124C233 126.209 231.209 128 229 128H157C154.791 128 153 126.209 153 124V116Z" fill="#CD7979"/>
  <path fill-rule="evenodd" clip-rule="evenodd" d="M193 150C193 146.686 195.686 144 199 144H227C230.314 144 233 146.686 233 150C233 153.314 230.314 156 227 156H199C195.686 156 193 153.314 193 150Z" fill="#EF493E"/>
  <path fill-rule="evenodd" clip-rule="evenodd" d="M203 150C203 149.448 203.448 149 204 149H222C222.552 149 223 149.448 223 150C223 150.552 222.552 151 222 151H204C203.448 151 203 150.552 203 150Z" fill="white"/>
  <defs>
  <linearGradient id="paint0_linear" x1="149.5" y1="0" x2="149.5" y2="220" gradientUnits="userSpaceOnUse">
  <stop stop-color="#FE6459"/>
  <stop offset="1" stop-color="#CB3025"/>
  </linearGradient>
  </defs>
  </svg>
  