<svg width="80" height="56" viewBox="0 0 80 56" fill="none" xmlns="http://www.w3.org/2000/svg">
<g clip-path="url(#clip0)">
<path fill-rule="evenodd" clip-rule="evenodd" d="M30.5455 32H49.4546C50.6546 32 51.6364 31.0182 51.6364 29.8182V8L43.6364 0H30.5455C29.3455 0 28.3636 0.981818 28.3636 2.18182V29.8182C28.3636 31.0182 29.3455 32 30.5455 32ZM32.7273 22.7277V12.5459H47.2728V22.7277H32.7273ZM39.0909 14.3641H34.5455V16.7277H39.0909V14.3641ZM39.0909 18.5459H34.5455V20.9095H39.0909V18.5459ZM40.9091 20.9095H45.4546V18.5459H40.9091V20.9095ZM40.9091 16.7277H45.4546V14.3641H40.9091V16.7277Z" fill="white"/>
<path d="M43.6364 0L51.6364 8H43.6364V0Z" fill="#EEEEEE"/>
</g>
<path d="M4.73327 53.096C5.96927 53.096 7.01327 52.46 7.40927 51.536V53H8.35727V50.12C8.35727 49.16 7.48127 48.68 6.86927 48.68H4.79327V49.568H6.68927C7.09727 49.568 7.34927 49.82 7.34927 50.204C7.34927 51.416 6.12527 52.196 4.74527 52.196C3.01727 52.196 1.74527 50.972 1.74527 48.8C1.74527 46.616 3.01727 45.428 4.74527 45.428C6.04127 45.428 7.09727 46.184 7.28927 47.252H8.36927C8.17727 45.644 6.67727 44.504 4.75727 44.504C2.66927 44.504 0.701266 45.932 0.701266 48.8C0.701266 51.668 2.65727 53.096 4.73327 53.096ZM12.4789 53.096C14.2789 53.096 15.5629 51.788 15.5629 49.976C15.5629 48.152 14.2789 46.856 12.4789 46.856C10.6909 46.856 9.40689 48.152 9.40689 49.976C9.40689 51.788 10.6909 53.096 12.4789 53.096ZM12.4789 52.232C11.2429 52.232 10.3909 51.296 10.3909 49.976C10.3909 48.656 11.2429 47.72 12.4789 47.72C13.7269 47.72 14.5789 48.656 14.5789 49.976C14.5789 51.296 13.7269 52.232 12.4789 52.232ZM19.5219 53.096C21.3219 53.096 22.6059 51.788 22.6059 49.976C22.6059 48.152 21.3219 46.856 19.5219 46.856C17.7339 46.856 16.4499 48.152 16.4499 49.976C16.4499 51.788 17.7339 53.096 19.5219 53.096ZM19.5219 52.232C18.2859 52.232 17.4339 51.296 17.4339 49.976C17.4339 48.656 18.2859 47.72 19.5219 47.72C20.7699 47.72 21.6219 48.656 21.6219 49.976C21.6219 51.296 20.7699 52.232 19.5219 52.232ZM28.4608 46.952V47.84C28.0888 47.264 27.2728 46.856 26.4568 46.856C24.5728 46.856 23.5408 48.212 23.5408 49.976C23.5408 51.74 24.5728 53.096 26.4568 53.096C27.3688 53.096 28.1728 52.724 28.4608 52.16V53.228C28.4608 54.032 27.9088 54.62 27.1288 54.62H24.3328V55.448H27.1888C28.4968 55.448 29.4208 54.548 29.4208 53.264V46.952H28.4608ZM26.5408 52.232C25.3168 52.232 24.5248 51.344 24.5248 49.976C24.5248 48.608 25.3168 47.72 26.5408 47.72C27.7528 47.72 28.5448 48.608 28.5448 49.976C28.5448 51.344 27.7528 52.232 26.5408 52.232ZM31.0959 53H32.0559V44.468H31.0959V53ZM38.1246 51.056C37.9326 51.812 37.3086 52.244 36.3246 52.244C35.1846 52.244 34.3566 51.356 34.2846 50.108H39.0126C39.0246 50.024 39.0366 49.82 39.0366 49.688C39.0366 48.08 37.9806 46.856 36.2166 46.856C34.4406 46.856 33.3366 48.164 33.3366 49.94C33.3366 51.668 34.5366 53.096 36.3246 53.096C37.8246 53.096 38.8926 52.292 39.0966 51.056H38.1246ZM36.2166 47.672C37.2966 47.672 37.9806 48.32 38.0526 49.34H34.3326C34.5126 48.272 35.1966 47.672 36.2166 47.672ZM46.0085 53.096C47.7605 53.096 49.0805 52.232 49.0805 50.708C49.0805 47.552 44.1365 48.884 44.1365 46.736C44.1365 45.932 44.8085 45.428 45.9485 45.428C47.0765 45.428 47.8085 46.04 47.9045 46.988H48.9125C48.7925 45.476 47.6285 44.504 45.9485 44.504C44.2685 44.504 43.1045 45.404 43.1045 46.736C43.1045 49.736 48.0125 48.548 48.0125 50.708C48.0125 51.728 47.1725 52.172 46.0085 52.172C44.7005 52.172 43.9325 51.416 43.8245 50.252H42.8165C42.9245 51.968 44.1245 53.096 46.0085 53.096ZM50.3615 53H51.3215V49.736C51.3215 48.56 52.0655 47.732 53.0975 47.732C54.0095 47.732 54.6095 48.428 54.6095 49.46V53H55.5695V49.304C55.5695 47.828 54.6815 46.856 53.3135 46.856C52.3895 46.856 51.6335 47.276 51.3215 48.116V44.468H50.3615V53ZM61.5972 51.056C61.4052 51.812 60.7812 52.244 59.7972 52.244C58.6572 52.244 57.8292 51.356 57.7572 50.108H62.4852C62.4972 50.024 62.5092 49.82 62.5092 49.688C62.5092 48.08 61.4532 46.856 59.6892 46.856C57.9132 46.856 56.8092 48.164 56.8092 49.94C56.8092 51.668 58.0092 53.096 59.7972 53.096C61.2972 53.096 62.3652 52.292 62.5692 51.056H61.5972ZM59.6892 47.672C60.7692 47.672 61.4532 48.32 61.5252 49.34H57.8052C57.9852 48.272 58.6692 47.672 59.6892 47.672ZM68.2418 51.056C68.0498 51.812 67.4258 52.244 66.4418 52.244C65.3018 52.244 64.4738 51.356 64.4018 50.108H69.1298C69.1418 50.024 69.1538 49.82 69.1538 49.688C69.1538 48.08 68.0978 46.856 66.3338 46.856C64.5578 46.856 63.4538 48.164 63.4538 49.94C63.4538 51.668 64.6538 53.096 66.4418 53.096C67.9418 53.096 69.0098 52.292 69.2138 51.056H68.2418ZM66.3338 47.672C67.4138 47.672 68.0978 48.32 68.1698 49.34H64.4498C64.6298 48.272 65.3138 47.672 66.3338 47.672ZM71.036 45.02V46.952H69.776V47.804H71.036V51.104C71.036 52.28 71.78 53 72.932 53H73.856V52.148H72.968C72.38 52.148 71.996 51.752 71.996 51.08V47.804H73.856V46.952H71.996V45.02H71.036ZM77.058 53.096C78.39 53.096 79.278 52.4 79.278 51.32C79.278 48.548 75.738 50.168 75.738 48.536C75.738 48.008 76.206 47.672 76.914 47.672C77.466 47.672 78.222 47.936 78.306 48.704H79.242C79.17 47.588 78.27 46.856 76.938 46.856C75.666 46.856 74.802 47.528 74.802 48.548C74.802 51.164 78.318 49.544 78.318 51.344C78.318 51.836 77.814 52.256 77.058 52.256C76.182 52.256 75.654 51.836 75.57 51.056H74.646C74.742 52.316 75.654 53.096 77.058 53.096Z" fill="white"/>
<defs>
<clipPath id="clip0">
<rect width="23.2727" height="32" fill="white" transform="translate(28.3636)"/>
</clipPath>
</defs>
</svg>
