<svg width="65" height="56" viewBox="0 0 65 56" fill="none" xmlns="http://www.w3.org/2000/svg">
<path d="M35.74 32C33.4795 32.0003 32.7636 30.2102 32.4704 29.4783C32.0419 28.4058 31.9491 24.2427 32.0446 20.8285C32.0514 20.5865 32.2515 20.3952 32.4949 20.4027C32.7366 20.4095 32.9272 20.611 32.9207 20.853C32.8106 24.7908 32.9671 28.3591 33.2841 29.1527C33.7795 30.3909 34.5305 31.474 36.6547 31.0192C38.6711 30.5866 39.4262 29.8219 39.7624 27.8726C40.0208 26.3764 40.5308 22.1202 40.5935 21.2802C40.6116 21.0388 40.8209 20.8575 41.0629 20.8759C41.3043 20.8939 41.4853 21.1043 41.4673 21.3453C41.4018 22.2194 40.8938 26.4678 40.6256 28.0216C40.2284 30.3244 39.2019 31.369 36.8381 31.8759C36.4368 31.9615 36.0717 32 35.74 32ZM23.4841 23.2575C23.2683 23.2578 23.0726 23.2182 22.9032 23.1617C21.4349 22.6718 20.0365 20.2807 18.7465 16.0541C17.7647 12.8366 17.1426 9.47869 17.088 8.38745C16.9261 5.15225 17.7596 2.86306 19.5647 1.58398C23.136 -0.946567 29.1442 1.4633 29.3981 1.56694C29.6221 1.65864 29.7295 1.91432 29.6378 2.1383C29.5464 2.36193 29.2904 2.46966 29.0668 2.37795C29.0088 2.35409 23.2475 0.0464932 20.0696 2.30023C18.5259 3.39488 17.8172 5.42804 17.9628 8.34416C18.0088 9.26324 18.59 12.5411 19.5845 15.7988C20.736 19.5716 22.0468 21.9528 23.1803 22.3305C23.358 22.3902 23.8993 22.5705 24.6739 21.6399C26.1302 19.8876 27.4683 18.4892 27.4816 18.4752C27.6489 18.3003 27.9264 18.2949 28.101 18.4619C28.2755 18.6293 28.2817 18.9068 28.1143 19.0813C28.101 19.095 26.7834 20.4726 25.3475 22.2C24.6674 23.0175 24.0152 23.2575 23.4841 23.2575ZM42.5476 19.5658C42.4634 19.5658 42.3782 19.5416 42.3032 19.4908C42.1024 19.3558 42.0492 19.0834 42.1845 18.8826C46.2655 12.8267 47.698 5.50986 46.4711 3.94237C44.9268 1.96921 42.746 0.938304 39.9898 0.879328C37.9488 0.83501 36.3264 1.35626 36.0615 1.44728L35.995 1.47421C35.7284 1.55807 35.5239 1.41182 35.4468 1.24103C35.3555 1.03887 35.4305 0.799897 35.62 0.685011L35.738 0.636602C36.1883 0.471944 37.8356 -0.022711 39.8759 0.000811594C42.926 0.0328568 45.4453 1.20933 47.1614 3.40204C47.9735 4.43976 47.9752 6.83053 47.1665 9.96108C46.3422 13.1526 44.7911 16.5832 42.9113 19.3725C42.8268 19.4983 42.6884 19.5658 42.5476 19.5658ZM42.7559 22.369C42.0591 22.369 41.4345 22.2712 41.0605 22.0469C40.676 21.8168 40.6027 21.5035 40.5932 21.3375C40.4882 19.4952 41.5048 19.1744 42.0233 19.0282C41.951 18.9191 41.848 18.7906 41.742 18.6579C41.4396 18.2802 41.0258 17.7627 40.7067 16.9889C40.6569 16.8682 40.5001 16.5869 40.3187 16.2617C39.3359 14.4996 37.2911 10.8324 38.6047 8.95438C39.2128 8.08541 40.4231 7.74348 42.2067 7.93439C41.682 6.33588 39.1832 1.33512 33.2548 1.23796C31.4715 1.20796 30.009 1.75648 28.9103 2.86579C26.45 5.35066 26.5393 9.84653 26.5403 9.89119C26.5468 10.1332 26.3555 10.3344 26.1138 10.3405C25.8718 10.348 25.6707 10.1561 25.6645 9.91403C25.6591 9.7146 25.567 4.9968 28.2878 2.24909C29.5611 0.963191 31.237 0.328423 33.2691 0.361491C37.0627 0.423877 39.504 2.35204 40.8843 3.95908C42.3884 5.70997 43.1261 7.64155 43.1868 8.28586C43.2321 8.76518 42.8881 8.86131 42.8186 8.87529L42.6608 8.87904C40.9102 8.59881 39.7873 8.79313 39.323 9.45688C38.3238 10.8846 40.2581 14.3533 41.0841 15.8349C41.2951 16.2126 41.4471 16.4857 41.5167 16.6544C41.788 17.3124 42.1419 17.7545 42.4262 18.1098C42.6761 18.4224 42.8929 18.6931 42.9706 19.0115C43.0064 19.0745 43.5171 19.8293 46.5461 19.2041C47.3053 19.0476 47.7604 19.1816 47.8995 19.6023C48.1732 20.4303 46.6374 21.3958 45.7872 21.7909C45.0243 22.1451 43.8083 22.369 42.7559 22.369ZM41.4669 21.2652C41.5627 21.3624 42.0434 21.5294 43.0392 21.4868C43.9242 21.4486 44.8579 21.256 45.4184 20.9962C46.1349 20.6635 46.6129 20.2916 46.8607 20.0376L46.723 20.0628C44.7863 20.4627 43.4166 20.4095 42.6519 19.9043C42.597 19.8685 42.5483 19.831 42.5036 19.7942C42.4208 19.8269 42.3441 19.8484 42.2895 19.8637C41.8555 19.9854 41.4069 20.1112 41.4669 21.2652ZM28.9567 23.7126C28.4756 23.7126 27.9694 23.6474 27.4522 23.5176C26.9167 23.3836 26.0133 22.9803 26.0273 22.3179C26.0426 21.5744 27.1236 21.3514 27.531 21.2676C29.001 20.9649 29.0968 20.8435 29.5563 20.2602C29.6903 20.0901 29.857 19.8784 30.084 19.6244C30.4215 19.247 30.7904 19.0554 31.1804 19.0554C31.4518 19.0554 31.6747 19.1478 31.8216 19.2085C32.2907 19.4028 32.6821 19.8726 32.843 20.4351C32.9882 20.9424 32.919 21.4305 32.648 21.8096C31.7589 23.055 30.4826 23.7126 28.9567 23.7126ZM26.9736 22.3558C27.1059 22.4577 27.3704 22.594 27.6646 22.668C28.1126 22.7798 28.5469 22.8368 28.9567 22.8368C30.2051 22.8368 31.207 22.3196 31.9352 21.3006C32.0869 21.0879 32.0415 20.8183 32.001 20.6761C31.9157 20.3788 31.7044 20.1085 31.4865 20.0178C31.3682 19.9687 31.2704 19.9312 31.1804 19.9312C31.132 19.9312 30.9851 19.9312 30.7372 20.2084C30.5279 20.4422 30.3776 20.6332 30.2443 20.8019C29.6722 21.5284 29.4101 21.7748 27.7076 22.1256C27.2924 22.2116 27.0793 22.2981 26.9736 22.3558ZM30.3425 20.3349C30.1297 20.3349 29.9432 20.1797 29.9098 19.9633C29.8986 19.8907 29.8914 19.8174 29.888 19.7437C28.7719 19.7226 27.6953 19.244 26.8782 18.391C25.8449 17.3127 25.3744 15.8189 25.5878 14.2926C25.8196 12.6351 25.7331 11.172 25.6863 10.3858C25.6734 10.1673 25.6642 10.0095 25.6649 9.90005C25.6656 9.76165 25.6683 9.39381 26.8973 8.77097C27.3343 8.54938 28.2108 8.16279 29.168 8.06359C30.7546 7.89996 31.8002 8.60631 32.1131 10.0531C32.9579 13.9599 32.1799 15.688 31.612 16.9497C31.506 17.1842 31.4061 17.4065 31.3263 17.6212L31.2557 17.8111C30.9557 18.6157 30.6963 19.3108 30.7761 19.8303C30.8126 20.0696 30.6486 20.2929 30.4096 20.3301L30.3425 20.3349ZM26.5437 10.0211L26.5611 10.334C26.6095 11.1505 26.6995 12.6703 26.4554 14.4143C26.2795 15.673 26.6641 16.9019 27.5105 17.7852C28.1794 18.4834 29.0603 18.8686 29.9654 18.8686H29.9842C30.0857 18.4415 30.2538 17.9908 30.4348 17.505L30.5051 17.3165C30.5954 17.0737 30.7011 16.8389 30.8129 16.5903C31.3597 15.3754 32.0402 13.8631 31.2564 10.2382C31.101 9.52062 30.7246 9.10506 30.1059 8.96802C28.835 8.68711 26.9412 9.64301 26.5437 10.0211ZM29.9617 10.6115L29.8498 10.6037C29.6027 10.5693 29.3528 10.4135 29.182 10.1868C29.122 10.1073 29.0238 9.95255 29.0433 9.81483C29.0712 9.61267 29.3173 9.49199 29.7022 9.49199C29.7885 9.49199 29.8778 9.49847 29.9681 9.51074C30.1781 9.54006 30.3735 9.60074 30.5177 9.68119C30.7676 9.82096 30.786 9.97642 30.7747 10.0572C30.7437 10.2798 30.3885 10.6115 29.9617 10.6115ZM41.306 9.51926C41.3275 9.67437 41.0224 10.0879 40.6238 10.1431C40.2257 10.1983 39.8851 9.87551 39.8633 9.7204C39.8421 9.56563 40.1476 9.39483 40.5458 9.3396C40.944 9.2837 41.2842 9.36483 41.306 9.51926ZM40.5321 10.2222C40.1486 10.2222 39.8183 9.92392 39.791 9.73062C39.7596 9.49847 40.1418 9.32188 40.5359 9.26733C40.6225 9.25506 40.7084 9.24892 40.7912 9.24892C41.1311 9.24892 41.3561 9.34881 41.3786 9.50938C41.3933 9.61369 41.3135 9.77426 41.1758 9.9188C41.0851 10.0143 40.8942 10.1796 40.6344 10.2154L40.5321 10.2222ZM40.7909 9.39483C40.7149 9.39483 40.6358 9.40063 40.5557 9.41154C40.1595 9.46642 39.924 9.62563 39.9352 9.71085C39.9485 9.80426 40.2011 10.0763 40.5318 10.0763L40.6133 10.0705C40.8294 10.0402 40.9917 9.89937 41.0691 9.8179C41.1904 9.69006 41.2388 9.57006 41.233 9.52881C41.2259 9.47529 41.08 9.39483 40.7909 9.39483ZM41.8797 18.4128C41.7959 18.4128 41.7113 18.389 41.6363 18.3389C41.4352 18.2039 41.3813 17.9322 41.516 17.731C42.4487 16.3377 42.2779 14.9165 42.1129 13.5426C42.0424 12.957 41.9697 12.3519 41.9888 11.7706C42.0079 11.173 42.0836 10.68 42.1572 10.2028C42.2442 9.6379 42.3263 9.1037 42.2922 8.47029C42.2789 8.22893 42.4644 8.02268 42.7061 8.00905C42.9485 7.99609 43.1541 8.18154 43.1674 8.42325C43.2062 9.14733 43.1131 9.75142 43.0231 10.3361C42.9536 10.7871 42.8817 11.2535 42.8643 11.7986C42.8476 12.313 42.9134 12.8595 42.9829 13.4376C43.1588 14.8991 43.3576 16.5556 42.2442 18.2182C42.1596 18.3443 42.0209 18.4128 41.8797 18.4128Z" fill="white"/>
<path d="M1.23761 53H2.25761V49.568H4.39361C6.06161 49.568 7.06961 48.56 7.06961 47.084C7.06961 45.608 6.06161 44.6 4.39361 44.6H1.23761V53ZM2.25761 48.656V45.512H4.39361C5.58161 45.512 6.02561 46.256 6.02561 47.084C6.02561 47.912 5.58161 48.656 4.39361 48.656H2.25761ZM10.6625 53.096C12.4625 53.096 13.7465 51.788 13.7465 49.976C13.7465 48.152 12.4625 46.856 10.6625 46.856C8.87448 46.856 7.59048 48.152 7.59048 49.976C7.59048 51.788 8.87448 53.096 10.6625 53.096ZM10.6625 52.232C9.42648 52.232 8.57448 51.296 8.57448 49.976C8.57448 48.656 9.42648 47.72 10.6625 47.72C11.9105 47.72 12.7625 48.656 12.7625 49.976C12.7625 51.296 11.9105 52.232 10.6625 52.232ZM17.0229 53.096C18.3549 53.096 19.2429 52.4 19.2429 51.32C19.2429 48.548 15.7029 50.168 15.7029 48.536C15.7029 48.008 16.1709 47.672 16.8789 47.672C17.4309 47.672 18.1869 47.936 18.2709 48.704H19.2069C19.1349 47.588 18.2349 46.856 16.9029 46.856C15.6309 46.856 14.7669 47.528 14.7669 48.548C14.7669 51.164 18.2829 49.544 18.2829 51.344C18.2829 51.836 17.7789 52.256 17.0229 52.256C16.1469 52.256 15.6189 51.836 15.5349 51.056H14.6109C14.7069 52.316 15.6189 53.096 17.0229 53.096ZM21.1375 45.02V46.952H19.8775V47.804H21.1375V51.104C21.1375 52.28 21.8815 53 23.0335 53H23.9575V52.148H23.0695C22.4815 52.148 22.0975 51.752 22.0975 51.08V47.804H23.9575V46.952H22.0975V45.02H21.1375ZM29.4569 46.952V47.84C29.0849 47.264 28.2689 46.856 27.4529 46.856C25.5689 46.856 24.5369 48.212 24.5369 49.976C24.5369 51.74 25.5689 53.096 27.4529 53.096C28.3649 53.096 29.1689 52.724 29.4569 52.16V53.228C29.4569 54.032 28.9049 54.62 28.1249 54.62H25.3289V55.448H28.1849C29.4929 55.448 30.4169 54.548 30.4169 53.264V46.952H29.4569ZM27.5369 52.232C26.3129 52.232 25.5209 51.344 25.5209 49.976C25.5209 48.608 26.3129 47.72 27.5369 47.72C28.7489 47.72 29.5409 48.608 29.5409 49.976C29.5409 51.344 28.7489 52.232 27.5369 52.232ZM35.416 47.804V46.952H34.648C33.76 46.952 33.256 47.348 33.004 48.176V46.952H32.044V53H33.004V50.336C33.004 48.908 33.352 47.804 34.576 47.804H35.416ZM40.5972 51.056C40.4052 51.812 39.7812 52.244 38.7972 52.244C37.6572 52.244 36.8292 51.356 36.7572 50.108H41.4852C41.4972 50.024 41.5092 49.82 41.5092 49.688C41.5092 48.08 40.4532 46.856 38.6892 46.856C36.9132 46.856 35.8092 48.164 35.8092 49.94C35.8092 51.668 37.0092 53.096 38.7972 53.096C40.2972 53.096 41.3652 52.292 41.5692 51.056H40.5972ZM38.6892 47.672C39.7692 47.672 40.4532 48.32 40.5252 49.34H36.8052C36.9852 48.272 37.6692 47.672 38.6892 47.672ZM45.6218 53.096C47.3738 53.096 48.6938 52.232 48.6938 50.708C48.6938 47.552 43.7498 48.884 43.7498 46.736C43.7498 45.932 44.4218 45.428 45.5618 45.428C46.6898 45.428 47.4218 46.04 47.5178 46.988H48.5258C48.4058 45.476 47.2418 44.504 45.5618 44.504C43.8818 44.504 42.7178 45.404 42.7178 46.736C42.7178 49.736 47.6258 48.548 47.6258 50.708C47.6258 51.728 46.7858 52.172 45.6218 52.172C44.3138 52.172 43.5458 51.416 43.4378 50.252H42.4298C42.5378 51.968 43.7378 53.096 45.6218 53.096ZM57.8828 48.8C57.8828 46.328 56.1188 44.504 53.7548 44.504C51.3908 44.504 49.6388 46.328 49.6388 48.8C49.6388 51.116 51.1748 52.856 53.2988 53.072V53.576C53.2988 54.884 53.9828 55.448 55.3508 55.448H56.4188V54.62H55.3628C54.5708 54.62 54.2348 54.356 54.2348 53.552V53.072C56.3588 52.844 57.8828 51.104 57.8828 48.8ZM50.6948 48.8C50.6948 46.868 51.9908 45.428 53.7548 45.428C55.5188 45.428 56.8268 46.868 56.8268 48.8C56.8268 50.732 55.5188 52.172 53.7548 52.172C51.9908 52.172 50.6948 50.732 50.6948 48.8ZM59.2571 53H64.4771V52.076H60.2771V44.6H59.2571V53Z" fill="white"/>
</svg>
