<svg width="39" height="56" viewBox="0 0 39 56" fill="none" xmlns="http://www.w3.org/2000/svg">
<g clip-path="url(#clip0)">
<path fill-rule="evenodd" clip-rule="evenodd" d="M32.9758 24.9269C31.2353 24.8784 29.8851 25.0568 28.7535 25.5329C28.4276 25.6638 27.9047 25.6638 27.8618 26.0739C28.0359 26.246 28.0569 26.5276 28.2096 26.7661C28.4706 27.199 28.9281 27.7822 29.3413 28.0847L30.7339 29.0799C31.5826 29.5986 32.5402 29.9016 33.367 30.4207C33.846 30.7237 34.3245 31.113 34.8035 31.4378C35.0474 31.6108 35.1952 31.8925 35.5001 32.0001V31.9346C35.3479 31.7407 35.304 31.4596 35.1523 31.2424L34.4986 30.6156C33.8679 29.7721 33.084 29.0362 32.2353 28.4313C31.5387 27.9552 30.0159 27.3066 29.733 26.5068L29.69 26.4583C30.1681 26.4098 30.7339 26.2416 31.1914 26.1117C31.9319 25.9178 32.606 25.9604 33.367 25.766L34.4123 25.4631V25.2692C34.0206 24.8799 33.7377 24.3607 33.3245 23.9933C32.2148 23.0417 30.9953 22.1114 29.733 21.3329C29.0583 20.9005 28.1876 20.6188 27.4696 20.2519C27.2077 20.122 26.7731 20.057 26.6209 19.8408C26.2282 19.3657 26.0111 18.738 25.7282 18.1751L23.9439 14.4119C23.5522 13.5684 23.3122 12.725 22.8342 11.9464C20.5923 8.26951 18.1544 6.04202 14.4111 3.8572C13.6062 3.40298 12.6487 3.20762 11.6307 2.97008L9.99858 2.88283C9.64981 2.73158 9.30202 2.3205 8.99716 2.12563C7.75672 1.3471 4.55733 -0.339875 3.64273 1.88325C3.05495 3.28906 4.51343 4.67305 5.00853 5.38711C5.37925 5.88448 5.85728 6.4468 6.11922 7.00913C6.26555 7.37657 6.31434 7.76632 6.46701 8.15559C6.8148 9.10718 7.14162 10.1674 7.59868 11.0545C7.84257 11.5087 8.09866 11.9852 8.40352 12.3958C8.57766 12.6382 8.88253 12.7419 8.9474 13.1312C8.64253 13.5641 8.62156 14.2122 8.44742 14.7537C7.66355 17.1979 7.96842 20.2257 9.07813 22.0251C9.4269 22.5656 10.2488 23.7557 11.3639 23.301C12.3434 22.9118 12.1248 21.679 12.4078 20.5975C12.4736 20.3382 12.4297 20.1651 12.5599 19.9916V20.04L13.4526 21.8351C14.1272 22.8948 15.3028 23.9981 16.2818 24.734C16.8037 25.1232 17.2173 25.7942 17.87 26.0317V25.9662H17.8271C17.6963 25.7723 17.5002 25.6851 17.3261 25.5338C16.9344 25.1446 16.4993 24.6685 16.1944 24.2361C15.2808 23.0252 14.476 21.6839 13.7575 20.2999C13.4087 19.6294 13.1038 18.894 12.8219 18.2236C12.6902 17.9638 12.6902 17.574 12.4731 17.4451C12.1463 17.9202 11.6683 18.3322 11.4278 18.9159C11.0142 19.8456 10.9712 20.9921 10.819 22.1817C10.7312 22.2035 10.7703 22.1817 10.7312 22.2302C10.0357 22.0576 9.79567 21.3431 9.5347 20.7381C8.88204 19.2024 8.77277 16.7369 9.33861 14.9631C9.4908 14.5089 10.1444 13.0813 9.88347 12.6489C9.75176 12.2378 9.31763 12.0002 9.07764 11.6755C8.79472 11.2644 8.49083 10.7457 8.29474 10.2915C7.77281 9.07955 7.51185 7.73918 6.94553 6.52776C6.68359 5.96543 6.22702 5.38129 5.85679 4.8626C5.44315 4.27846 4.98707 3.86738 4.66025 3.17562C4.55147 2.93324 4.39928 2.54834 4.57342 2.28851C4.61635 2.11545 4.70415 2.04613 4.87732 2.00735C5.16023 1.76496 5.96605 2.0723 6.24897 2.20125C7.05382 2.52604 7.72842 2.82853 8.40303 3.28227C8.7079 3.49848 9.03472 3.90955 9.42641 4.01814H9.88395C10.5805 4.16939 11.3634 4.06662 12.0156 4.26052C13.1692 4.62894 14.2135 5.16897 15.1501 5.75359C18.0007 7.54867 20.3518 10.1009 21.9401 13.1511C22.201 13.6484 22.3098 14.1027 22.5498 14.6218C23.0074 15.682 23.5732 16.763 24.0293 17.8019C24.4868 18.8184 24.9219 19.8573 25.5746 20.7008C25.9014 21.155 27.2067 21.3925 27.794 21.6305C28.2296 21.8244 28.9037 21.999 29.2964 22.2365C30.0359 22.6907 30.7758 23.2099 31.4719 23.7073C31.8197 23.9661 32.9084 24.5071 32.9733 24.9386L32.9758 24.9269ZM10.7815 6.1317C10.4808 6.12906 10.181 6.1654 9.88981 6.23981V6.28828H9.93273C10.1069 6.6344 10.4117 6.87242 10.6293 7.1754L11.1302 8.21376L11.1732 8.16528C11.478 7.94908 11.6307 7.60296 11.6307 7.08426C11.5 6.93302 11.4785 6.78129 11.3697 6.63004C11.239 6.41384 10.9561 6.30525 10.7815 6.13268V6.1317Z" fill="white"/>
</g>
<path d="M1.21027 53H2.20627V46.304L4.85827 53H5.75827L8.41027 46.304V53H9.40627V44.6H8.07427L5.31427 51.62L2.54227 44.6H1.21027V53ZM15.8869 46.952H14.8789L13.1629 51.752L11.4469 46.952H10.4509L12.7069 53.096L11.9389 55.448H12.8629L13.9669 52.172L15.8869 46.952ZM19.6491 53.096C21.4011 53.096 22.7211 52.232 22.7211 50.708C22.7211 47.552 17.7771 48.884 17.7771 46.736C17.7771 45.932 18.4491 45.428 19.5891 45.428C20.7171 45.428 21.4491 46.04 21.5451 46.988H22.5531C22.4331 45.476 21.2691 44.504 19.5891 44.504C17.9091 44.504 16.7451 45.404 16.7451 46.736C16.7451 49.736 21.6531 48.548 21.6531 50.708C21.6531 51.728 20.8131 52.172 19.6491 52.172C18.3411 52.172 17.5731 51.416 17.4651 50.252H16.4571C16.5651 51.968 17.7651 53.096 19.6491 53.096ZM31.9101 48.8C31.9101 46.328 30.1461 44.504 27.7821 44.504C25.4181 44.504 23.6661 46.328 23.6661 48.8C23.6661 51.116 25.2021 52.856 27.3261 53.072V53.576C27.3261 54.884 28.0101 55.448 29.3781 55.448H30.4461V54.62H29.3901C28.5981 54.62 28.2621 54.356 28.2621 53.552V53.072C30.3861 52.844 31.9101 51.104 31.9101 48.8ZM24.7221 48.8C24.7221 46.868 26.0181 45.428 27.7821 45.428C29.5461 45.428 30.8541 46.868 30.8541 48.8C30.8541 50.732 29.5461 52.172 27.7821 52.172C26.0181 52.172 24.7221 50.732 24.7221 48.8ZM33.2845 53H38.5045V52.076H34.3045V44.6H33.2845V53Z" fill="white"/>
<defs>
<clipPath id="clip0">
<rect width="32" height="32" fill="white" transform="translate(3.5)"/>
</clipPath>
</defs>
</svg>
