<svg width="32" height="56" viewBox="0 0 32 56" fill="none" xmlns="http://www.w3.org/2000/svg">
<g clip-path="url(#clip0)">
<path d="M30.0416 16.0036C30.0416 14.1432 27.7118 12.3801 24.1399 11.2868C24.9642 7.64618 24.5978 4.74971 22.9836 3.82238C22.6115 3.60485 22.1764 3.50182 21.7013 3.50182V4.77833C21.9646 4.77833 22.1764 4.82985 22.3539 4.92716C23.1324 5.37365 23.4701 7.07375 23.2068 9.26042C23.1438 9.7985 23.0408 10.3652 22.9149 10.9434C21.7929 10.6686 20.5679 10.4568 19.28 10.3194C18.5072 9.26042 17.7058 8.29874 16.8987 7.45728C18.7648 5.72283 20.5164 4.7726 21.7071 4.7726V3.49609C20.1329 3.49609 18.0722 4.61805 15.9885 6.5643C13.9049 4.6295 11.8442 3.51899 10.27 3.51899V4.7955C11.4549 4.7955 13.2123 5.74 15.0784 7.463C14.277 8.30447 13.4756 9.26042 12.7143 10.3194C11.4206 10.4568 10.1956 10.6686 9.07363 10.9491C8.94197 10.3766 8.84465 9.8214 8.77596 9.28904C8.50692 7.10237 8.83893 5.40227 9.6117 4.95005C9.78343 4.84702 10.0067 4.80122 10.27 4.80122V3.52472C9.78916 3.52472 9.35411 3.62775 8.97631 3.84527C7.3678 4.7726 7.00717 7.66335 7.83719 11.2925C4.2767 12.3916 1.95837 14.1489 1.95837 16.0036C1.95837 17.864 4.28815 19.627 7.86008 20.7204C7.03579 24.361 7.40214 27.2575 9.01638 28.1848C9.38846 28.4023 9.8235 28.5054 10.3043 28.5054C11.8785 28.5054 13.9392 27.3834 16.0229 25.4372C18.1065 27.372 20.1672 28.4825 21.7414 28.4825C22.2222 28.4825 22.6573 28.3794 23.0351 28.1619C24.6436 27.2346 25.0042 24.3438 24.1742 20.7147C27.7233 19.6213 30.0416 17.8583 30.0416 16.0036ZM22.5886 12.1855C22.3768 12.9239 22.1135 13.6853 21.8158 14.4466C21.5811 13.9887 21.335 13.5307 21.0659 13.0728C20.8026 12.6148 20.5221 12.1683 20.2417 11.7333C21.0545 11.8535 21.8387 12.0023 22.5886 12.1855ZM19.9669 18.2818C19.5204 19.0546 19.0625 19.7873 18.5873 20.4685C17.7344 20.5429 16.8701 20.583 16 20.583C15.1356 20.583 14.2712 20.5429 13.4241 20.4742C12.9489 19.7931 12.4853 19.0661 12.0388 18.299C11.6037 17.5491 11.2088 16.7878 10.8481 16.0208C11.203 15.2537 11.6037 14.4867 12.0331 13.7368C12.4796 12.964 12.9375 12.2313 13.4126 11.5501C14.2655 11.4757 15.1299 11.4356 16 11.4356C16.8643 11.4356 17.7287 11.4757 18.5759 11.5444C19.051 12.2256 19.5147 12.9526 19.9612 13.7196C20.3962 14.4695 20.7912 15.2308 21.1518 15.9979C20.7912 16.7649 20.3962 17.532 19.9669 18.2818ZM21.8158 17.5377C22.1249 18.3047 22.3882 19.0718 22.6058 19.8159C21.8559 19.9991 21.0659 20.1537 20.2474 20.2739C20.5279 19.8331 20.8084 19.3809 21.0717 18.9172C21.335 18.4593 21.5811 17.9956 21.8158 17.5377ZM16.0114 23.6455C15.4791 23.0959 14.9467 22.4834 14.4201 21.8137C14.9353 21.8366 15.4619 21.8538 15.9943 21.8538C16.5323 21.8538 17.0647 21.8423 17.5856 21.8137C17.0704 22.4834 16.5381 23.0959 16.0114 23.6455ZM11.7526 20.2739C10.9397 20.1537 10.1555 20.0048 9.40563 19.8217C9.61743 19.0832 9.88074 18.3219 10.1784 17.5606C10.4131 18.0185 10.6592 18.4765 10.9283 18.9344C11.1973 19.3924 11.4721 19.8388 11.7526 20.2739ZM15.9828 8.36171C16.5152 8.91124 17.0475 9.52374 17.5741 10.1935C17.059 10.1706 16.5323 10.1534 16 10.1534C15.4619 10.1534 14.9295 10.1649 14.4086 10.1935C14.9238 9.52374 15.4562 8.91124 15.9828 8.36171ZM11.7469 11.7333C11.4664 12.1741 11.1859 12.6263 10.9226 13.0899C10.6592 13.5479 10.4131 14.0058 10.1784 14.4638C9.8693 13.6967 9.60598 12.9297 9.38846 12.1855C10.1383 12.0081 10.9283 11.8535 11.7469 11.7333ZM6.5664 18.9001C4.54001 18.0357 3.22916 16.9023 3.22916 16.0036C3.22916 15.1049 4.54001 13.9658 6.5664 13.1071C7.05869 12.8953 7.59677 12.7064 8.15202 12.529C8.4783 13.6509 8.90762 14.8187 9.43998 16.015C8.91335 17.2057 8.48975 18.3677 8.16919 19.4839C7.60249 19.3065 7.06441 19.1119 6.5664 18.9001ZM9.64605 27.08C8.86755 26.6335 8.52982 24.9334 8.79314 22.7468C8.8561 22.2087 8.95914 21.642 9.08507 21.0638C10.207 21.3386 11.432 21.5504 12.72 21.6878C13.4928 22.7468 14.2941 23.7084 15.1013 24.5499C13.2352 26.2844 11.4835 27.2346 10.2929 27.2346C10.0353 27.2289 9.81778 27.1773 9.64605 27.08ZM23.224 22.7181C23.493 24.9048 23.161 26.6049 22.3882 27.0571C22.2165 27.1602 21.9933 27.206 21.73 27.206C20.545 27.206 18.7877 26.2615 16.9216 24.5385C17.723 23.697 18.5244 22.741 19.2857 21.6821C20.5794 21.5447 21.8044 21.3329 22.9263 21.0524C23.058 21.6305 23.161 22.1858 23.224 22.7181ZM25.4278 18.9001C24.9355 19.1119 24.3975 19.3008 23.8422 19.4782C23.5159 18.3563 23.0866 17.1885 22.5542 15.9921C23.0809 14.8015 23.5045 13.6395 23.825 12.5232C24.3917 12.7007 24.9298 12.8953 25.4335 13.1071C27.4599 13.9715 28.7708 15.1049 28.7708 16.0036C28.7651 16.9023 27.4542 18.0414 25.4278 18.9001Z" fill="white"/>
<path d="M15.9943 18.6187C17.4391 18.6187 18.6103 17.4475 18.6103 16.0027C18.6103 14.5579 17.4391 13.3867 15.9943 13.3867C14.5495 13.3867 13.3783 14.5579 13.3783 16.0027C13.3783 17.4475 14.5495 18.6187 15.9943 18.6187Z" fill="white"/>
</g>
<path d="M5.75017 49.016C6.54217 48.644 7.07017 47.984 7.07017 47.06C7.07017 45.596 6.05017 44.6 4.39417 44.6H1.21417V53H2.23417V49.58H4.51417C5.30617 49.58 5.83417 50.156 5.88217 50.972L6.02617 53H7.01017L6.86617 50.912C6.80617 50.06 6.41017 49.376 5.75017 49.016ZM2.23417 45.512H4.39417C5.57017 45.512 6.01417 46.232 6.01417 47.06C6.01417 47.888 5.57017 48.656 4.39417 48.656H2.23417V45.512ZM13.0347 51.056C12.8427 51.812 12.2187 52.244 11.2347 52.244C10.0947 52.244 9.26673 51.356 9.19473 50.108H13.9227C13.9347 50.024 13.9467 49.82 13.9467 49.688C13.9467 48.08 12.8907 46.856 11.1267 46.856C9.35073 46.856 8.24673 48.164 8.24673 49.94C8.24673 51.668 9.44673 53.096 11.2347 53.096C12.7347 53.096 13.8027 52.292 14.0067 51.056H13.0347ZM11.1267 47.672C12.2067 47.672 12.8907 48.32 12.9627 49.34H9.24273C9.42273 48.272 10.1067 47.672 11.1267 47.672ZM17.5207 46.856C16.1647 46.856 15.0607 47.72 14.9527 48.884H15.8647C15.9127 48.224 16.6087 47.672 17.4967 47.672C18.5287 47.672 19.1167 48.236 19.1167 49.064C19.1167 49.256 18.9967 49.388 18.7327 49.388H17.3647C15.9007 49.388 14.9527 50.12 14.9527 51.272C14.9527 52.376 15.7807 53.096 17.0527 53.096C17.9887 53.096 18.7927 52.652 19.1167 51.956V53H20.0767V49.1C20.0767 47.756 19.0927 46.856 17.5207 46.856ZM17.1967 52.28C16.4287 52.28 15.9367 51.884 15.9367 51.26C15.9367 50.552 16.5247 50.12 17.4247 50.12H19.1167V50.276C19.1167 51.524 18.4087 52.28 17.1967 52.28ZM24.0891 53.096C25.6251 53.096 26.6211 52.28 26.8251 51.044H25.8891C25.6731 51.776 25.0131 52.232 24.1011 52.232C22.7931 52.232 22.1451 51.212 22.1451 49.976C22.1451 48.74 22.7811 47.72 24.1011 47.72C25.0131 47.72 25.7691 48.26 25.8891 48.992H26.8371C26.6571 47.648 25.4451 46.856 24.0891 46.856C22.1811 46.856 21.1491 48.356 21.1491 49.976C21.1491 51.596 22.1811 53.096 24.0891 53.096ZM28.6024 45.02V46.952H27.3424V47.804H28.6024V51.104C28.6024 52.28 29.3464 53 30.4984 53H31.4224V52.148H30.5344C29.9464 52.148 29.5624 51.752 29.5624 51.08V47.804H31.4224V46.952H29.5624V45.02H28.6024Z" fill="white"/>
<defs>
<clipPath id="clip0">
<rect width="28.0832" height="32" fill="white" transform="translate(1.95837)"/>
</clipPath>
</defs>
</svg>
