<svg width="37" height="56" viewBox="0 0 37 56" fill="none" xmlns="http://www.w3.org/2000/svg">
<path fill-rule="evenodd" clip-rule="evenodd" d="M8.49661 5.69471C9.48678 6.49919 9.85824 6.43781 11.7176 6.31374L29.2469 5.26119C29.6187 5.26119 29.3095 4.8903 29.1855 4.82867L26.2743 2.72407C25.7165 2.29098 24.9733 1.79502 23.5489 1.91909L6.57533 3.15709C5.9563 3.21846 5.83266 3.52798 6.07917 3.77605L8.49661 5.69471ZM9.54904 9.77991V28.2237C9.54904 29.215 10.0444 29.5858 11.1592 29.5245L30.4239 28.4098C31.5393 28.3484 31.6636 27.6667 31.6636 26.8614V8.54135C31.6636 7.73743 31.3543 7.30391 30.6715 7.36579L10.5398 8.54135C9.7968 8.60379 9.54898 8.97543 9.54898 9.77991H9.54904ZM28.5671 10.7693C28.6906 11.3269 28.5671 11.8839 28.0084 11.9466L27.0802 12.1316V25.748C26.2743 26.1811 25.5312 26.4288 24.9119 26.4288C23.9204 26.4288 23.6721 26.1191 22.9294 25.1912L16.8578 15.6596V24.8817L18.7791 25.3152C18.7791 25.3152 18.7791 26.4288 17.229 26.4288L12.9558 26.6767C12.8317 26.4288 12.9558 25.8104 13.3893 25.6865L14.5044 25.3774V13.1841L12.9561 13.06C12.832 12.5024 13.1412 11.6984 14.0091 11.6361L18.5932 11.327L24.9119 20.9827V12.441L23.3009 12.2562C23.1772 11.5745 23.6721 11.0795 24.2916 11.0182L28.5671 10.7693ZM5.15019 1.48607L22.8055 0.185878C24.9736 -6.92755e-05 25.5314 0.124501 26.8941 1.11436L32.5299 5.07549C33.4598 5.75665 33.7698 5.9421 33.7698 6.68463V28.4098C33.7698 29.7713 33.2737 30.5766 31.5396 30.6997L11.0366 31.9379C9.7348 31.9999 9.11527 31.8144 8.43354 30.9474L4.28327 25.5626C3.53967 24.5714 3.23041 23.8298 3.23041 22.9623V3.65155C3.23041 2.53812 3.72656 1.60932 5.15019 1.48607Z" fill="white"/>
<path d="M1.30011 53H2.32011V46.184L6.64011 53H7.81611V44.6H6.79611V51.44L2.46411 44.6H1.30011V53ZM12.225 53.096C14.025 53.096 15.309 51.788 15.309 49.976C15.309 48.152 14.025 46.856 12.225 46.856C10.437 46.856 9.15298 48.152 9.15298 49.976C9.15298 51.788 10.437 53.096 12.225 53.096ZM12.225 52.232C10.989 52.232 10.137 51.296 10.137 49.976C10.137 48.656 10.989 47.72 12.225 47.72C13.473 47.72 14.325 48.656 14.325 49.976C14.325 51.296 13.473 52.232 12.225 52.232ZM17.1336 45.02V46.952H15.8736V47.804H17.1336V51.104C17.1336 52.28 17.8776 53 19.0296 53H19.9536V52.148H19.0656C18.4776 52.148 18.0936 51.752 18.0936 51.08V47.804H19.9536V46.952H18.0936V45.02H17.1336ZM20.9251 44.468V45.812H22.0291V44.468H20.9251ZM20.9971 53H21.9571V46.952H20.9971V53ZM26.264 53.096C28.064 53.096 29.348 51.788 29.348 49.976C29.348 48.152 28.064 46.856 26.264 46.856C24.476 46.856 23.192 48.152 23.192 49.976C23.192 51.788 24.476 53.096 26.264 53.096ZM26.264 52.232C25.028 52.232 24.176 51.296 24.176 49.976C24.176 48.656 25.028 47.72 26.264 47.72C27.512 47.72 28.364 48.656 28.364 49.976C28.364 51.296 27.512 52.232 26.264 52.232ZM30.583 53H31.543V49.736C31.543 48.56 32.287 47.732 33.319 47.732C34.231 47.732 34.831 48.428 34.831 49.46V53H35.791V49.304C35.791 47.828 34.903 46.856 33.535 46.856C32.611 46.856 31.855 47.276 31.543 48.116V46.952H30.583V53Z" fill="white"/>
</svg>
