<svg width="41" height="56" viewBox="0 0 41 56" fill="none" xmlns="http://www.w3.org/2000/svg">
<g clip-path="url(#clip0)">
<path d="M18.789 2.95354L6.85846 7.89054C6.19495 8.16554 6.20195 9.10754 6.86945 9.37204L18.8495 14.123C19.9021 14.5405 21.0743 14.5405 22.127 14.123L34.107 9.37204C34.7745 9.10704 34.782 8.16504 34.118 7.89054L22.188 2.95404C21.0996 2.5036 19.8769 2.5036 18.7885 2.95404" fill="white"/>
<path d="M21.5515 16.7158V28.5843C21.5517 28.7147 21.5837 28.8431 21.6448 28.9582C21.7059 29.0734 21.7942 29.1719 21.902 29.2451C22.0099 29.3184 22.134 29.3641 22.2636 29.3785C22.3932 29.3928 22.5243 29.3752 22.6455 29.3273L35.9955 24.1453C36.1443 24.0862 36.2719 23.9838 36.3619 23.8513C36.4518 23.7188 36.4999 23.5624 36.5 23.4023V11.5343C36.4998 11.404 36.4678 11.2756 36.4067 11.1605C36.3456 11.0453 36.2573 10.9468 36.1495 10.8736C36.0416 10.8003 35.9175 10.7545 35.7879 10.7402C35.6584 10.7259 35.5273 10.7434 35.406 10.7913L22.056 15.9733C21.9072 16.0325 21.7796 16.1349 21.6897 16.2674C21.5997 16.3998 21.5516 16.5562 21.5515 16.7163" fill="white"/>
<path d="M18.435 17.3285L14.071 19.436L5.70749 23.4435C5.17749 23.6995 4.50049 23.3135 4.50049 22.7235V11.5845C4.50049 11.3715 4.60949 11.1875 4.75649 11.0495C4.81658 10.9896 4.88473 10.9385 4.95899 10.8975C5.15899 10.7775 5.44399 10.7455 5.68649 10.8415L18.369 15.8665C19.019 16.1225 19.069 17.0255 18.4355 17.329" fill="white"/>
<path d="M18.435 17.3285L14.473 19.2415L4.75604 11.0485C4.81613 10.9886 4.88429 10.9375 4.95854 10.8965C5.15854 10.7765 5.44354 10.7445 5.68604 10.8405L18.3685 15.8655C19.0185 16.1215 19.0685 17.0245 18.435 17.328" fill="#EEEEEE"/>
</g>
<path d="M6.83327 53H7.90127L4.55327 44.6H3.62927L0.281266 53H1.34927L2.22527 50.732H5.96927L6.83327 53ZM2.57327 49.82L4.09727 45.86L5.60927 49.82H2.57327ZM8.71023 44.468V45.812H9.81423V44.468H8.71023ZM8.78223 53H9.74223V46.952H8.78223V53ZM15.1892 45.02V51.104C15.1892 52.28 15.9332 53 17.0852 53H18.0092V52.148H17.1212C16.5332 52.148 16.1492 51.752 16.1492 51.08V47.804H18.0092V46.952H16.1492V45.02H15.1892ZM14.6372 47.804V46.952H13.9292C13.0412 46.952 12.5372 47.348 12.2852 48.176V46.952H11.3252V53H12.2852V50.336C12.2852 48.908 12.6332 47.804 13.8572 47.804H14.6372ZM21.1769 46.856C19.8209 46.856 18.7169 47.72 18.6089 48.884H19.5209C19.5689 48.224 20.2649 47.672 21.1529 47.672C22.1849 47.672 22.7729 48.236 22.7729 49.064C22.7729 49.256 22.6529 49.388 22.3889 49.388H21.0209C19.5569 49.388 18.6089 50.12 18.6089 51.272C18.6089 52.376 19.4369 53.096 20.7089 53.096C21.6449 53.096 22.4489 52.652 22.7729 51.956V53H23.7329V49.1C23.7329 47.756 22.7489 46.856 21.1769 46.856ZM20.8529 52.28C20.0849 52.28 19.5929 51.884 19.5929 51.26C19.5929 50.552 20.1809 50.12 21.0809 50.12H22.7729V50.276C22.7729 51.524 22.0649 52.28 20.8529 52.28ZM28.1653 53.096C30.0493 53.096 31.0813 51.74 31.0813 49.976C31.0813 48.212 30.0493 46.856 28.1653 46.856C27.3133 46.856 26.5333 47.288 26.1613 47.936V44.468H25.2013V53H26.1613V52.004C26.5333 52.664 27.3253 53.096 28.1653 53.096ZM28.0813 52.232C26.8693 52.232 26.0773 51.344 26.0773 49.976C26.0773 48.608 26.8693 47.72 28.0813 47.72C29.3053 47.72 30.0973 48.608 30.0973 49.976C30.0973 51.344 29.3053 52.232 28.0813 52.232ZM32.3615 53H33.3215V44.468H32.3615V53ZM39.3902 51.056C39.1982 51.812 38.5742 52.244 37.5902 52.244C36.4502 52.244 35.6222 51.356 35.5502 50.108H40.2782C40.2902 50.024 40.3022 49.82 40.3022 49.688C40.3022 48.08 39.2462 46.856 37.4822 46.856C35.7062 46.856 34.6022 48.164 34.6022 49.94C34.6022 51.668 35.8022 53.096 37.5902 53.096C39.0902 53.096 40.1582 52.292 40.3622 51.056H39.3902ZM37.4822 47.672C38.5622 47.672 39.2462 48.32 39.3182 49.34H35.5982C35.7782 48.272 36.4622 47.672 37.4822 47.672Z" fill="white"/>
<defs>
<clipPath id="clip0">
<rect width="32" height="32" fill="white" transform="translate(4.5)"/>
</clipPath>
</defs>
</svg>
