<svg width="49" height="56" viewBox="0 0 49 56" fill="none" xmlns="http://www.w3.org/2000/svg">
<g clip-path="url(#clip0)">
<path fill-rule="evenodd" clip-rule="evenodd" d="M27.2304 3.66414L33.8015 7.45821C33.9912 7.25748 34.2089 7.0852 34.4479 6.9467C35.8106 6.16323 37.5489 6.6284 38.3405 7.99127C39.124 9.35413 38.6588 11.0923 37.2959 11.8839C37.0587 12.0205 36.8031 12.1222 36.537 12.1861V19.777C36.8002 19.8409 37.053 19.942 37.2878 20.0772C38.6588 20.8688 39.124 22.607 38.3324 23.9699C37.5489 25.3326 35.8025 25.7978 34.4396 25.0145C34.1756 24.863 33.9378 24.6699 33.7353 24.4426L27.2041 28.2134C27.2998 28.503 27.3484 28.806 27.348 29.111C27.348 30.6779 26.075 31.9592 24.5 31.9592C22.9249 31.9592 21.6519 30.686 21.6519 29.111C21.6519 28.8311 21.6921 28.5607 21.7671 28.3052L15.1978 24.5123C15.0102 24.709 14.7955 24.8781 14.5603 25.0145C13.1893 25.7978 11.4511 25.3326 10.6676 23.9699C9.88421 22.607 10.3494 20.8688 11.7121 20.0772C11.9469 19.942 12.1997 19.8409 12.463 19.7769V12.1861C12.1968 12.1222 11.9412 12.0205 11.704 11.8839C10.3412 11.1005 9.87599 9.35413 10.6595 7.99127C11.4429 6.6284 13.1892 6.16323 14.5521 6.9467C14.7897 7.08446 15.0064 7.25563 15.1953 7.45499L21.7684 3.65992C21.6909 3.39694 21.6517 3.12416 21.6519 2.85C21.6519 1.27516 22.9249 0.00195312 24.5 0.00195312C26.075 0.00195312 27.348 1.27505 27.348 2.85C27.348 3.13308 27.3069 3.40628 27.2304 3.66414ZM26.5458 4.83314L33.1326 8.63609C33.0277 9.00273 32.9976 9.38671 33.0441 9.76521C33.0906 10.1437 33.2128 10.509 33.4033 10.8393C33.8043 11.5368 34.4574 11.9992 35.1823 12.1794V19.7798C35.1454 19.7888 35.1086 19.7986 35.072 19.8091L26.4692 4.90924C26.4952 4.88435 26.5208 4.85902 26.5458 4.83325V4.83314ZM22.5325 4.91091L13.9298 19.8105C13.8926 19.7998 13.8552 19.7898 13.8176 19.7805V12.1794C14.5425 11.9992 15.1957 11.5368 15.5966 10.8393C15.7876 10.5083 15.9098 10.1423 15.9562 9.76304C16.0025 9.38377 15.9719 8.99906 15.8663 8.63187L22.4512 4.83003C22.4777 4.85747 22.5048 4.88446 22.5325 4.9108V4.91091ZM25.2958 5.58584L33.8965 20.4821C33.6995 20.6701 33.5306 20.8855 33.3951 21.1217C33.2599 21.3565 33.1588 21.6093 33.0949 21.8725H15.9053C15.8413 21.6093 15.7401 21.3565 15.6049 21.1217C15.4689 20.8872 15.3003 20.6731 15.1042 20.4858L23.7066 5.58651C23.9645 5.66077 24.2316 5.69832 24.5 5.69805C24.7763 5.69805 25.0433 5.65894 25.2958 5.58584ZM26.6062 27.1923L33.1502 23.4141C33.1306 23.3524 33.1131 23.2901 33.0977 23.2272H15.9016C15.8925 23.2642 15.8826 23.3008 15.8721 23.3374L22.4481 27.1342C22.7136 26.8581 23.0323 26.6386 23.3849 26.4888C23.7376 26.3391 24.1169 26.2623 24.5 26.263C24.8965 26.2623 25.2887 26.3446 25.6515 26.5047C26.0142 26.6648 26.3394 26.899 26.6062 27.1923Z" fill="white"/>
</g>
<path d="M4.64342 53.096C5.87942 53.096 6.92342 52.46 7.31942 51.536V53H8.26742V50.12C8.26742 49.16 7.39142 48.68 6.77942 48.68H4.70342V49.568H6.59942C7.00742 49.568 7.25942 49.82 7.25942 50.204C7.25942 51.416 6.03542 52.196 4.65542 52.196C2.92742 52.196 1.65542 50.972 1.65542 48.8C1.65542 46.616 2.92742 45.428 4.65542 45.428C5.95142 45.428 7.00742 46.184 7.19942 47.252H8.27942C8.08742 45.644 6.58742 44.504 4.66742 44.504C2.57942 44.504 0.611422 45.932 0.611422 48.8C0.611422 51.668 2.56742 53.096 4.64342 53.096ZM13.037 47.804V46.952H12.269C11.381 46.952 10.877 47.348 10.625 48.176V46.952H9.66505V53H10.625V50.336C10.625 48.908 10.973 47.804 12.197 47.804H13.037ZM16.1886 46.856C14.8326 46.856 13.7286 47.72 13.6206 48.884H14.5326C14.5806 48.224 15.2766 47.672 16.1646 47.672C17.1966 47.672 17.7846 48.236 17.7846 49.064C17.7846 49.256 17.6646 49.388 17.4006 49.388H16.0326C14.5686 49.388 13.6206 50.12 13.6206 51.272C13.6206 52.376 14.4486 53.096 15.7206 53.096C16.6566 53.096 17.4606 52.652 17.7846 51.956V53H18.7446V49.1C18.7446 47.756 17.7606 46.856 16.1886 46.856ZM15.8646 52.28C15.0966 52.28 14.6046 51.884 14.6046 51.26C14.6046 50.552 15.1926 50.12 16.0926 50.12H17.7846V50.276C17.7846 51.524 17.0766 52.28 15.8646 52.28ZM20.213 55.448H21.173V52.028C21.533 52.676 22.313 53.096 23.165 53.096C25.037 53.096 26.093 51.74 26.093 49.976C26.093 48.212 25.061 46.856 23.189 46.856C22.325 46.856 21.545 47.288 21.173 47.948V46.952H20.213V55.448ZM23.093 52.232C21.881 52.232 21.089 51.344 21.089 49.976C21.089 48.608 21.881 47.72 23.093 47.72C24.305 47.72 25.097 48.608 25.097 49.976C25.097 51.344 24.305 52.232 23.093 52.232ZM27.3732 53H28.3332V49.736C28.3332 48.56 29.0772 47.732 30.1092 47.732C31.0212 47.732 31.6212 48.428 31.6212 49.46V53H32.5812V49.304C32.5812 47.828 31.6932 46.856 30.3252 46.856C29.4012 46.856 28.6452 47.276 28.3332 48.116V44.468H27.3732V53ZM42.125 48.8C42.125 46.328 40.361 44.504 37.997 44.504C35.633 44.504 33.881 46.328 33.881 48.8C33.881 51.116 35.417 52.856 37.541 53.072V53.576C37.541 54.884 38.225 55.448 39.593 55.448H40.661V54.62H39.605C38.813 54.62 38.477 54.356 38.477 53.552V53.072C40.601 52.844 42.125 51.104 42.125 48.8ZM34.937 48.8C34.937 46.868 36.233 45.428 37.997 45.428C39.761 45.428 41.069 46.868 41.069 48.8C41.069 50.732 39.761 52.172 37.997 52.172C36.233 52.172 34.937 50.732 34.937 48.8ZM43.4993 53H48.7193V52.076H44.5193V44.6H43.4993V53Z" fill="white"/>
<defs>
<clipPath id="clip0">
<rect width="28.4416" height="32" fill="white" transform="translate(10.2792)"/>
</clipPath>
</defs>
</svg>
