<svg width="299" height="220" viewBox="0 0 299 220" fill="none" xmlns="http://www.w3.org/2000/svg">
  <rect width="299" height="220" rx="16" fill="#111215"/>
  <rect x="0.5" y="0.5" width="298" height="219" rx="15.5" fill="#1A1B1E" stroke="url(#paint0_linear)"/>
  <rect x="32" y="33" width="20" height="4" rx="2" fill="white"/>
  <rect x="32" y="43" width="32" height="4" rx="2" fill="#4c4acf"/>
  <rect x="32" y="71" width="20" height="4" rx="2" fill="white"/>
  <rect x="32" y="99" width="20" height="4" rx="2" fill="white"/>
  <rect x="32" y="127" width="20" height="4" rx="2" fill="white"/>
  <rect x="32" y="155" width="20" height="4" rx="2" fill="white"/>
  <rect x="32" y="183" width="20" height="4" rx="2" fill="white"/>
  <rect x="247" y="183" width="20" height="4" rx="2" fill="white"/>
  <rect x="211" y="183" width="20" height="4" rx="2" fill="white"/>
  <rect x="175" y="183" width="20" height="4" rx="2" fill="white"/>
  <rect x="139" y="183" width="20" height="4" rx="2" fill="white"/>
  <rect x="103" y="183" width="20" height="4" rx="2" fill="white"/>
  <rect x="67" y="183" width="20" height="4" rx="2" fill="white"/>
  <path d="M267 104.97L258.264 67.9667C258.016 66.9136 256.504 66.9507 256.308 68.0147L243.058 139.672C242.876 140.657 241.519 140.792 241.147 139.861L227.448 105.598C227.296 105.219 226.928 104.97 226.519 104.97H216.045C215.654 104.97 215.299 105.198 215.136 105.553L205.481 126.648C205.069 127.549 203.738 127.366 203.584 126.388L189.702 38.2986C189.53 37.2044 187.97 37.1607 187.737 38.2436L176.261 91.4798C176.162 91.9403 175.755 92.269 175.284 92.269H164.923C164.54 92.269 164.191 92.4875 164.024 92.8318L147.238 127.355C146.84 128.175 145.642 128.078 145.381 127.204L138.958 105.684C138.831 105.26 138.441 104.97 137.999 104.97H129.746C129.265 104.97 128.852 104.627 128.763 104.155L125.024 84.2876C124.818 83.1934 123.247 83.2041 123.056 84.3011L115.173 129.577C115.162 129.635 115.147 129.693 115.126 129.749L110.973 141.081C110.682 141.875 109.599 141.972 109.171 141.243L102.471 129.819C102.411 129.717 102.37 129.605 102.349 129.489L98.1057 105.793C98.0204 105.317 97.6057 104.97 97.1214 104.97H88.9247C88.4595 104.97 88.0558 105.29 87.9506 105.743L79.3629 142.736C79.3124 142.953 79.1907 143.147 79.0171 143.287L71.7057 149.193C71.5228 149.34 71.3978 149.548 71.3527 149.778L67 172" stroke="url(#paint1_linear)" stroke-width="4" stroke-linecap="round"/>
  <defs>
  <linearGradient id="paint0_linear" x1="149.5" y1="0" x2="149.5" y2="220" gradientUnits="userSpaceOnUse">
  <stop stop-color="#4c4acf"/>
  <stop offset="1" stop-color="#4d4bcc56"/>
  </linearGradient>
  <linearGradient id="paint1_linear" x1="167" y1="33" x2="167" y2="172" gradientUnits="userSpaceOnUse">
  <stop stop-color="#4c4acf"/>
  <stop offset="1" stop-color="#4d4bcc56"/>
  </linearGradient>
  </defs>
  </svg>
  