<svg width="299" height="220" viewBox="0 0 299 220" fill="none" xmlns="http://www.w3.org/2000/svg">
  <rect x="0.5" y="0.5" width="298" height="219" rx="15.5" fill="#1A1B1E" stroke="url(#paint0_linear)"/>
  <path fill-rule="evenodd" clip-rule="evenodd" d="M245 156C245 152.686 247.686 150 251 150H261C264.314 150 267 152.686 267 156C267 159.314 264.314 162 261 162H251C247.686 162 245 159.314 245 156Z" fill="#EF493E"/>
  <path fill-rule="evenodd" clip-rule="evenodd" d="M251 160C253.209 160 255 158.209 255 156C255 153.791 253.209 152 251 152C248.791 152 247 153.791 247 156C247 158.209 248.791 160 251 160Z" fill="white"/>
  <path fill-rule="evenodd" clip-rule="evenodd" d="M245 128C245 124.686 247.686 122 251 122H261C264.314 122 267 124.686 267 128C267 131.314 264.314 134 261 134H251C247.686 134 245 131.314 245 128Z" fill="white" fill-opacity="0.8"/>
  <path fill-rule="evenodd" clip-rule="evenodd" d="M261 132C263.209 132 265 130.209 265 128C265 125.791 263.209 124 261 124C258.791 124 257 125.791 257 128C257 130.209 258.791 132 261 132Z" fill="#EF493E"/>
  <path fill-rule="evenodd" clip-rule="evenodd" d="M32 124C32 122.895 32.8954 122 34 122H62C63.1046 122 64 122.895 64 124C64 125.105 63.1046 126 62 126H34C32.8954 126 32 125.105 32 124Z" fill="#FE6459"/>
  <path fill-rule="evenodd" clip-rule="evenodd" d="M104 62C104 59.7909 105.791 58 108 58H129C131.209 58 133 59.7909 133 62C133 64.2091 131.209 66 129 66H108C105.791 66 104 64.2091 104 62Z" fill="#FE6459"/>
  <path fill-rule="evenodd" clip-rule="evenodd" d="M32 136C32 134.895 32.8954 134 34 134H86C87.1046 134 88 134.895 88 136C88 137.105 87.1046 138 86 138H34C32.8954 138 32 137.105 32 136Z" fill="white"/>
  <path fill-rule="evenodd" clip-rule="evenodd" d="M104 132C104 130.895 104.895 130 106 130H219C220.105 130 221 130.895 221 132C221 133.105 220.105 134 219 134H106C104.895 134 104 133.105 104 132Z" fill="white"/>
  <path fill-rule="evenodd" clip-rule="evenodd" d="M104 160C104 158.895 104.895 158 106 158H160C161.105 158 162 158.895 162 160C162 161.105 161.105 162 160 162H106C104.895 162 104 161.105 104 160Z" fill="white"/>
  <path fill-rule="evenodd" clip-rule="evenodd" d="M32 144C32 142.895 32.8954 142 34 142H70C71.1046 142 72 142.895 72 144C72 145.105 71.1046 146 70 146H34C32.8954 146 32 145.105 32 144Z" fill="white"/>
  <path fill-rule="evenodd" clip-rule="evenodd" d="M104 124C104 122.895 104.895 122 106 122H160C161.105 122 162 122.895 162 124C162 125.105 161.105 126 160 126H106C104.895 126 104 125.105 104 124Z" fill="#FE6459"/>
  <path fill-rule="evenodd" clip-rule="evenodd" d="M104 152C104 150.895 104.895 150 106 150H219C220.105 150 221 150.895 221 152C221 153.105 220.105 154 219 154H106C104.895 154 104 153.105 104 152Z" fill="#FE6459"/>
  <path fill-rule="evenodd" clip-rule="evenodd" d="M32 62C32 59.7909 33.7909 58 36 58H84C86.2091 58 88 59.7909 88 62V110C88 112.209 86.2091 114 84 114H36C33.7909 114 32 112.209 32 110V62Z" fill="#CD7979"/>
  <path fill-rule="evenodd" clip-rule="evenodd" d="M104 78C104 75.7909 105.791 74 108 74H263C265.209 74 267 75.7909 267 78V110C267 112.209 265.209 114 263 114H108C105.791 114 104 112.209 104 110V78Z" fill="#CD7979"/>
  <defs>
  <linearGradient id="paint0_linear" x1="149.5" y1="0" x2="149.5" y2="220" gradientUnits="userSpaceOnUse">
  <stop stop-color="#FE6459"/>
  <stop offset="1" stop-color="#CB3025"/>
  </linearGradient>
  </defs>
  </svg>
  