<svg width="33" height="56" viewBox="0 0 33 56" fill="none" xmlns="http://www.w3.org/2000/svg">
<g clip-path="url(#clip0_3483_88921)">
<path opacity="0.6" d="M16.8236 11.8311L7 16.2988L16.8236 22.1026L26.6433 16.2988L16.8236 11.8311Z" fill="white"/>
<path opacity="0.45" d="M7 16.2993L16.8236 22.1031V0L7 16.2993Z" fill="#FAFAFA"/>
<path opacity="0.8" d="M16.8236 0V22.1031L26.6433 16.2993L16.8236 0Z" fill="#FAFAFA"/>
<path opacity="0.45" d="M7 18.1611L16.8236 32.0006V23.9649L7 18.1611Z" fill="#FAFAFA"/>
<path opacity="0.8" d="M16.8235 23.9649V32.0006L26.651 18.1611L16.8235 23.9649Z" fill="#FAFAFA"/>
</g>
<path d="M3.33089 53H4.35089L6.43889 46.172L8.51489 53H9.57089L12.1389 44.6H11.0949L9.00689 51.452L6.89489 44.6H5.98289L3.85889 51.452L1.79489 44.6H0.726891L3.33089 53ZM16.8043 51.056C16.6123 51.812 15.9883 52.244 15.0043 52.244C13.8643 52.244 13.0363 51.356 12.9643 50.108H17.6923C17.7043 50.024 17.7163 49.82 17.7163 49.688C17.7163 48.08 16.6603 46.856 14.8963 46.856C13.1203 46.856 12.0163 48.164 12.0163 49.94C12.0163 51.668 13.2163 53.096 15.0043 53.096C16.5043 53.096 17.5723 52.292 17.7763 51.056H16.8043ZM14.8963 47.672C15.9763 47.672 16.6603 48.32 16.7323 49.34H13.0123C13.1923 48.272 13.8763 47.672 14.8963 47.672ZM22.0208 53.096C23.9048 53.096 24.9368 51.74 24.9368 49.976C24.9368 48.212 23.9048 46.856 22.0208 46.856C21.1688 46.856 20.3888 47.288 20.0168 47.936V44.468H19.0568V53H20.0168V52.004C20.3888 52.664 21.1808 53.096 22.0208 53.096ZM21.9368 52.232C20.7248 52.232 19.9328 51.344 19.9328 49.976C19.9328 48.608 20.7248 47.72 21.9368 47.72C23.1608 47.72 23.9528 48.608 23.9528 49.976C23.9528 51.344 23.1608 52.232 21.9368 52.232ZM29.073 53.096C30.645 53.096 32.037 52.232 32.037 50.624C32.037 49.616 31.365 48.872 30.489 48.584C31.161 48.284 31.701 47.564 31.701 46.712C31.701 45.428 30.573 44.504 29.013 44.504C27.513 44.504 26.421 45.464 26.361 46.988H27.357C27.417 45.992 28.041 45.428 29.001 45.428C30.009 45.428 30.657 45.92 30.657 46.748C30.657 47.588 30.057 48.2 29.061 48.2H28.401V49.1H29.073C30.249 49.1 30.993 49.628 30.993 50.612C30.993 51.608 30.249 52.172 29.073 52.172C27.933 52.172 27.069 51.452 27.069 50.36H26.061C26.061 52.004 27.381 53.096 29.073 53.096Z" fill="white"/>
<defs>
<clipPath id="clip0_3483_88921">
<rect width="28.4416" height="32" fill="white" transform="translate(2.27921)"/>
</clipPath>
</defs>
</svg>
